<svg width="100" height="102" fill="none" xmlns="http://www.w3.org/2000/svg"><path d="M49.3 90.228c-10.498 0-20.567-4.229-27.99-11.755-7.423-7.526-11.594-17.734-11.594-28.379 0-10.643 4.17-20.851 11.594-28.378C28.733 14.19 38.802 9.961 49.3 9.961c.552 0 1.082.223 1.473.62.39.395.61.933.61 1.493s-.22 1.097-.61 1.493a2.07 2.07 0 0 1-1.473.619 35.026 35.026 0 0 0-16.77 4.166 35.59 35.59 0 0 0-12.833 11.71 36.225 36.225 0 0 0-5.85 16.47 36.36 36.36 0 0 0 2.527 17.316 35.875 35.875 0 0 0 10.301 14.048 35.206 35.206 0 0 0 15.628 7.441 34.95 34.95 0 0 0 17.24-.934A35.334 35.334 0 0 0 74.3 75.315a2.087 2.087 0 0 1 1.496-.747 2.056 2.056 0 0 1 1.558.606 2.116 2.116 0 0 1 .62 1.57 2.136 2.136 0 0 1-.716 1.528 39.19 39.19 0 0 1-12.792 8.831A38.744 38.744 0 0 1 49.3 90.228Z" fill="#FF4343"/><path d="M48.05 63.613a1.934 1.934 0 0 1-1.459-.591L29.925 46.124a2.115 2.115 0 0 1-.617-1.5 2.14 2.14 0 0 1 .617-1.5 2.11 2.11 0 0 1 1.479-.608 2.11 2.11 0 0 1 1.479.608l15.167 15.42 33.958-34.43a2.078 2.078 0 0 1 1.48-.622c.554 0 1.086.224 1.478.622.393.397.613.937.613 1.5 0 .562-.22 1.101-.613 1.5L49.55 63.021a2.08 2.08 0 0 1-1.5.591Z" fill="#FF4343"/></svg>