<svg width="100" height="100" fill="none" xmlns="http://www.w3.org/2000/svg"><path d="M76.268 71.617H22.685A15.584 15.584 0 0 1 7.1 56.033V26.867a15.625 15.625 0 0 1 15.584-15.792h53.583a15.625 15.625 0 0 1 15.584 15.583v29.375a15.584 15.584 0 0 1-15.584 15.584ZM22.685 15.242a11.417 11.417 0 0 0-11.417 11.416v29.375A11.417 11.417 0 0 0 22.685 67.45h53.583a11.417 11.417 0 0 0 11.417-11.417V26.867a11.415 11.415 0 0 0-11.417-11.625H22.685Z" fill="#FF4343"/><path d="M89.767 55.783H9.184A2.125 2.125 0 0 1 7.101 53.7a2.083 2.083 0 0 1 2.083-2.083h80.583a2.083 2.083 0 1 1 0 4.166ZM49.42 87.742a2.083 2.083 0 0 1-2.083-2.084V69.533a2.083 2.083 0 1 1 4.167 0v16.125a2.083 2.083 0 0 1-2.083 2.084Z" fill="#FF4343"/><path d="M73.494 87.742H25.16a2.083 2.083 0 0 1 0-4.167h48.334a2.083 2.083 0 1 1 0 4.167Z" fill="#FF4343"/></svg>