<svg width="100" height="100" fill="none" xmlns="http://www.w3.org/2000/svg"><path d="M62.76 88.126H25.592a13.209 13.209 0 0 1-13.167-13.209V37.876a13.208 13.208 0 0 1 13.167-13.167h11.125a2.083 2.083 0 1 1 0 4.167H25.593a9.04 9.04 0 0 0-9 9v37.041a9.042 9.042 0 0 0 9 9.042h37.166a9.041 9.041 0 0 0 9.042-9.042v-7.416a2.083 2.083 0 1 1 4.167 0v7.416a13.208 13.208 0 0 1-13.209 13.209ZM73.718 39.376a2.083 2.083 0 0 1-2.084-2 8.793 8.793 0 0 0-1.416-4.334 8.584 8.584 0 0 0-2.667-2.666 9.042 9.042 0 0 0-4.167-1.417 2.081 2.081 0 0 1-2-2.167 2.042 2.042 0 0 1 1.917-2.083 13 13 0 0 1 6.5 2.083 12.5 12.5 0 0 1 3.917 3.917 13 13 0 0 1 2.083 6.5 2.083 2.083 0 0 1-2 2.167h-.083Z" fill="#FF4343"/><path d="M54.426 58.5H44.134a2.083 2.083 0 0 1-2.083-2.083v-10.5a2.083 2.083 0 0 1 .583-1.458l20.834-20.833a2.083 2.083 0 0 1 2.916 0l3.625 3.625a2.083 2.083 0 0 1 0 2.916 2.084 2.084 0 0 1-2.958 0l-2.125-2.083-18.833 18.708v7.542h7.541L72.51 35.417l-2.125-2.125a2.083 2.083 0 0 1 0-2.916 2.084 2.084 0 0 1 2.959 0l3.583 3.583a2.085 2.085 0 0 1 0 2.958L56.093 57.751a2.208 2.208 0 0 1-1.667.75Z" fill="#FF4343"/><path d="M75.593 37.5a2.166 2.166 0 0 1-1.5-.583l-3.584-3.625a2.084 2.084 0 0 1 0-2.916 2.083 2.083 0 0 1 2.959 0l2.125 2.125 7.5-7.542-7.5-7.5-7.542 7.5 2.125 2.125a2.084 2.084 0 0 1 0 2.917 2.082 2.082 0 0 1-2.958 0l-3.584-3.584a1.96 1.96 0 0 1-.625-1.458 2.042 2.042 0 0 1 .625-1.5l10.459-10.417a2.083 2.083 0 0 1 2.958 0L87.509 23.46a2.125 2.125 0 0 1 0 2.958l-10.458 10.5a2.083 2.083 0 0 1-1.458.584Z" fill="#FF4343"/></svg>