<svg width="100" height="100" fill="none" xmlns="http://www.w3.org/2000/svg"><path d="M66.492 67.283a2.084 2.084 0 0 1-1.75-.916 2.083 2.083 0 0 1 .625-2.917 29.499 29.499 0 1 0-31.917 0 2.084 2.084 0 1 1-2.25 3.5 33.666 33.666 0 1 1 36.417 0c-.332.223-.725.34-1.125.333Z" fill="#FF4343"/><path d="M66.492 83.742H32.325a2.125 2.125 0 0 1-2.083-2.084V65.2a2.125 2.125 0 0 1 2.083-2.083 2.083 2.083 0 0 1 2.083 2.083v14.375h30V65.2a2.083 2.083 0 0 1 2.084-2.083 2.125 2.125 0 0 1 2.083 2.083v16.458a2.125 2.125 0 0 1-2.083 2.084Z" fill="#FF4343"/><path d="M38.492 93.908a2.083 2.083 0 0 1-2.084-2.083v-7.333a2.126 2.126 0 0 1 2.084-2.084 2.083 2.083 0 0 1 2.083 2.084v7.333a2.083 2.083 0 0 1-2.083 2.083ZM60.325 93.908a2.083 2.083 0 0 1-2.083-2.083v-7.333a2.083 2.083 0 0 1 2.083-2.084 2.125 2.125 0 0 1 2.083 2.084v7.333a2.083 2.083 0 0 1-2.083 2.083ZM49.408 83.742a2.083 2.083 0 0 1-2.083-2.084V48.325a2.083 2.083 0 0 1 4.167 0v33.333a2.083 2.083 0 0 1-2.084 2.084Z" fill="#FF4343"/></svg>