<svg width="61" height="27" fill="none" xmlns="http://www.w3.org/2000/svg"><path d="M.454 25.747V.707h6.524c2.67 0 4.685.55 6.048 1.65 1.374 1.09 2.061 2.678 2.061 4.764 0 1.514-.38 2.77-1.141 3.767-.76.997-1.834 1.634-3.22 1.909 1.567.206 2.874.894 3.918 2.064 1.045 1.158 1.568 2.488 1.568 3.99 0 2.132-.687 3.818-2.062 5.056-1.362 1.227-3.265 1.84-5.707 1.84H.453Zm.92-12.365v11.437h7.172c2.1 0 3.748-.522 4.94-1.566 1.204-1.054 1.806-2.51 1.806-4.368 0-1.582-.58-2.884-1.738-3.904-1.158-1.032-2.709-1.565-4.65-1.6h-7.53Zm0-.93h5.945c2.26 0 3.964-.435 5.11-1.306 1.148-.883 1.721-2.247 1.721-4.093 0-3.555-2.322-5.36-6.967-5.418h-5.81v10.818ZM39.074 15.101c0 2.167-.386 4.088-1.159 5.762-.76 1.662-1.851 2.952-3.27 3.87-1.42.905-3.056 1.358-4.907 1.358-2.794 0-5.054-1.003-6.78-3.01-1.726-2.006-2.59-4.712-2.59-8.117v-3.612c0-2.155.38-4.07 1.142-5.744.772-1.674 1.868-2.964 3.288-3.87C26.228.821 27.864.363 29.704.363c1.851 0 3.487.458 4.906 1.375 1.431.906 2.533 2.202 3.305 3.887.773 1.674 1.159 3.583 1.159 5.727v3.75Zm-.92-3.783c0-3.027-.761-5.452-2.283-7.275-1.522-1.835-3.578-2.752-6.167-2.752-2.555 0-4.594.912-6.116 2.735-1.522 1.811-2.283 4.282-2.283 7.412v3.663c0 1.995.341 3.761 1.023 5.297.692 1.525 1.675 2.7 2.947 3.526 1.272.826 2.76 1.238 4.463 1.238 2.59 0 4.64-.911 6.15-2.734 1.51-1.823 2.266-4.311 2.266-7.464v-3.646ZM51.373 12.246 59.38.707h1.159L51.953 12.97l8.91 12.778H59.72l-8.348-12.056-8.381 12.056h-1.107l8.91-12.778L42.207.707h1.159l8.006 11.54Z" fill="#fff"/></svg>