<svg width="121" height="27" fill="none" xmlns="http://www.w3.org/2000/svg"><path d="M16.014 21.087H7.819l-1.43 4.677H0L9.097.724h5.622l9.165 25.04h-6.422l-1.448-4.677ZM9.25 16.425h5.333L11.908 7.74 9.25 16.426ZM45.4 17.286c-.08 1.742-.545 3.284-1.397 4.626-.852 1.33-2.05 2.362-3.594 3.096-1.533.733-3.288 1.1-5.264 1.1-3.26 0-5.827-1.072-7.7-3.216-1.874-2.144-2.811-5.17-2.811-9.08v-1.239c0-2.453.42-4.597 1.26-6.432.852-1.846 2.073-3.268 3.663-4.265 1.59-1.009 3.43-1.513 5.52-1.513 3.01 0 5.428.802 7.257 2.407 1.828 1.594 2.867 3.795 3.117 6.604H39.49c-.046-1.524-.426-2.62-1.142-3.284-.715-.665-1.805-.998-3.27-.998-1.488 0-2.579.562-3.271 1.686-.693 1.123-1.057 2.917-1.09 5.383v1.771c0 2.671.329 4.58.987 5.727.67 1.147 1.818 1.72 3.442 1.72 1.374 0 2.424-.327 3.151-.98.727-.654 1.113-1.692 1.159-3.113H45.4ZM67.189 5.384h-7.445v20.38h-5.98V5.384h-7.308V.724H67.19v4.66ZM76.099 25.764h-5.963V.724h5.963v25.04ZM89.88 18.954 94.82.724h6.679l-8.348 25.04H86.61L78.33.724h6.627l4.923 18.23ZM118.705 15.153h-9.404v5.968h11.107v4.643h-17.086V.724h17.12v4.66h-11.141v5.28h9.404v4.49Z" fill="#656980"/></svg>