<svg width="79" height="77" fill="none" xmlns="http://www.w3.org/2000/svg"><path d="M19.492 76.408a7.374 7.374 0 0 1-4.167-1.416 7.292 7.292 0 0 1-2.625-8.334l5.25-16.166a3.167 3.167 0 0 0-1.167-3.542l-13.75-10A7.333 7.333 0 0 1 7.2 23.7h17a3.167 3.167 0 0 0 3-1.958l5.25-16.209A7.167 7.167 0 0 1 39.408.408a7.209 7.209 0 0 1 6.959 5.042l5.25 16.292a3.208 3.208 0 0 0 3 2.166h17.041a7.333 7.333 0 0 1 4.167 13.25l-13.75 10a3.166 3.166 0 0 0-1.167 3.542L66.2 66.908a7.332 7.332 0 0 1-2.667 8.334 7.167 7.167 0 0 1-8.625 0l-13.75-10a3.208 3.208 0 0 0-3.708 0l-13.792 10a7.166 7.166 0 0 1-4.166 1.166ZM7.158 27.992a3.042 3.042 0 0 0-3 2.166A3.125 3.125 0 0 0 5.283 33.7l13.792 10a7.375 7.375 0 0 1 2.667 8.333l-5.25 16.042a3.083 3.083 0 0 0 1.125 3.542 3.042 3.042 0 0 0 3.708 0l13.917-10a7.25 7.25 0 0 1 8.583 0l13.667 10.125a3.042 3.042 0 0 0 3.708 0 3.084 3.084 0 0 0 1.125-3.542l-5.25-16.167a7.374 7.374 0 0 1 2.667-8.333l13.75-10a3.167 3.167 0 0 0-1.834-5.708H54.617a7.333 7.333 0 0 1-6.875-5.042L42.408 6.742a3.04 3.04 0 0 0-3-2.167 3.042 3.042 0 0 0-3 2.167L31.075 22.95a7.334 7.334 0 0 1-6.875 5.042H7.158Z" fill="#FF4343"/></svg>